<svg width="21" height="21" viewBox="0 0 21 21" fill="none" xmlns="http://www.w3.org/2000/svg">
<path fill-rule="evenodd" clip-rule="evenodd" d="M11.7922 4.88035L13.2172 6.28369L6.89896 12.6994C6.58192 13.023 6.58192 13.5438 6.89896 13.8674C7.1998 14.1744 7.70237 14.173 8.00001 13.8657L14.9514 6.80408C15.9662 5.76846 15.9662 4.10524 14.9514 3.06961C13.9832 2.08151 12.27 2.10349 11.3211 3.07149L3.73376 10.7737C2.02075 12.5211 2.02075 15.327 3.73376 17.0745C5.39717 18.7713 8.25466 18.7437 9.89209 17.0729L18.7411 8.08566L20.1662 9.48887L11.3188 18.4744C8.90494 20.9375 4.7593 20.9776 2.30555 18.4745C-0.169842 15.9494 -0.169842 11.8987 2.30725 9.37184L9.89455 1.66968C11.618 -0.088387 14.6193 -0.126893 16.3799 1.66983C18.1567 3.48309 18.1567 6.3906 16.3783 8.2055L9.43108 15.2628C8.35641 16.3727 6.55856 16.3778 5.47035 15.2671C4.39146 14.1659 4.39146 12.4009 5.47215 11.2979L11.7922 4.88035Z" fill="black"/>
</svg>
