<svg width="21" height="20" viewBox="0 0 21 20" fill="none" xmlns="http://www.w3.org/2000/svg">
<circle cx="10.8087" cy="10.1735" r="8.82824" stroke="#DD5900" stroke-width="2"/>
<path d="M14.0718 10.1735C14.0718 12.7839 13.6109 15.0995 12.9058 16.7251C12.5525 17.5396 12.1576 18.1354 11.77 18.5134C11.3869 18.8869 11.0635 19.0017 10.8088 19.0017C10.5541 19.0017 10.2306 18.8869 9.84755 18.5134C9.4599 18.1354 9.06503 17.5396 8.71177 16.7251C8.00665 15.0995 7.54575 12.7839 7.54575 10.1735C7.54575 7.56303 8.00665 5.24739 8.71177 3.62177C9.06503 2.80735 9.4599 2.21153 9.84755 1.83352C10.2306 1.46 10.5541 1.34521 10.8088 1.34521C11.0635 1.34521 11.3869 1.46 11.77 1.83352C12.1576 2.21153 12.5525 2.80735 12.9058 3.62177C13.6109 5.24739 14.0718 7.56303 14.0718 10.1735Z" stroke="#DD5900" stroke-width="2"/>
<path d="M1.45517 8.3291C4.72456 9.87774 13.0701 12.0458 20.2972 8.3291" stroke="#DD5900" stroke-width="2"/>
</svg>
