<svg width="16" height="18" viewBox="0 0 16 18" fill="none" xmlns="http://www.w3.org/2000/svg">
<g clip-path="url(#clip0_82_4)">
<path fill-rule="evenodd" clip-rule="evenodd" d="M0.275647 2.87553C0.18349 2.1384 0.780563 1.60523 1.52014 1.15233C4.25605 -0.473574 4.29696 0.601184 4.75102 1.8125C5.85172 4.74898 5.83354 3.79826 4.44112 5.72897C3.95207 6.40699 5.16223 8.58298 5.66976 9.46801C6.18257 10.3502 7.46202 12.4861 8.29349 12.4015C10.6618 12.1609 9.84762 11.6697 11.8402 14.0914C12.6621 15.0901 13.5727 15.663 10.796 17.2196C10.0344 17.6335 9.27415 17.8842 8.6816 17.4355C4.99345 14.4079 1.05346 7.58402 0.275647 2.87553ZM8.28734 2.221C10.3303 2.23765 12.2114 3.33022 13.2331 5.09992C14.2512 6.86314 14.2576 9.0524 13.2544 10.8238C13.1068 11.0833 13.198 11.4135 13.4575 11.5608C13.7173 11.7081 14.0474 11.6171 14.1944 11.3574C15.3849 9.25574 15.3769 6.65351 14.1691 4.56163C12.9529 2.45573 10.7278 1.16127 8.29588 1.14079C7.99773 1.13833 7.75392 1.37841 7.75184 1.6767C7.74939 1.97485 7.98919 2.21879 8.28734 2.221ZM8.27121 4.46644C9.51907 4.47676 10.6652 5.14406 11.289 6.2249C11.9111 7.29992 11.9137 8.63541 11.3015 9.71546C11.1544 9.97489 11.2452 10.3049 11.5051 10.4523C11.7645 10.5996 12.0945 10.5087 12.2419 10.2489C13.0392 8.84152 13.0366 7.08346 12.2249 5.68251C11.4085 4.26868 9.91156 3.39977 8.27968 3.38622C7.98153 3.38377 7.73773 3.62384 7.73552 3.92213C7.73293 4.22054 7.97293 4.46396 8.27121 4.46644ZM8.36065 6.71703C8.77457 6.75497 9.13674 6.98756 9.34431 7.34727C9.56967 7.73733 9.57122 8.21489 9.3487 8.607C9.20118 8.86656 9.2923 9.19673 9.55225 9.34387C9.81168 9.49139 10.1417 9.40027 10.2891 9.14045C10.6975 8.41934 10.6946 7.52321 10.2801 6.80518C9.89828 6.14407 9.21795 5.71093 8.45788 5.64134C8.16089 5.61436 7.89812 5.83365 7.87125 6.13053C7.84454 6.42765 8.06342 6.6903 8.36065 6.71703Z" fill="white"/>
</g>
<defs>
<clipPath id="clip0_82_4">
<rect width="16" height="18" fill="white"/>
</clipPath>
</defs>
</svg>
