<svg width="16" height="18" viewBox="0 0 16 18" fill="none" xmlns="http://www.w3.org/2000/svg">
<path fill-rule="evenodd" clip-rule="evenodd" d="M0.230115 3.12968C0.137958 2.39255 0.73503 1.85938 1.47461 1.40648C4.21052 -0.219422 4.25143 0.855335 4.70549 2.06665C5.80619 5.00313 5.78801 4.05241 4.39559 5.98312C3.90654 6.66114 5.1167 8.83713 5.62423 9.72216C6.13704 10.6043 7.41649 12.7402 8.24796 12.6557C10.6163 12.4151 9.80209 11.9238 11.7947 14.3456C12.6166 15.3442 13.5272 15.9171 10.7505 17.4737C9.98884 17.8877 9.22861 18.1383 8.63607 17.6897C4.94792 14.6621 1.00799 7.83821 0.230185 3.12972L0.230115 3.12968ZM8.24181 2.47515C10.2847 2.4918 12.1659 3.58437 13.1875 5.35407C14.2056 7.11729 14.2121 9.30655 13.2088 11.0779C13.0613 11.3375 13.1524 11.6677 13.412 11.8149C13.6718 11.9622 14.0019 11.8712 14.1489 11.6115C15.3394 9.50989 15.3314 6.90766 14.1236 4.81578C12.9073 2.70988 10.6822 1.41542 8.25035 1.39494C7.95219 1.39248 7.70839 1.63256 7.70631 1.93085C7.70386 2.229 7.94367 2.4728 8.24182 2.47501L8.24181 2.47515ZM8.22568 4.72059C9.47354 4.73091 10.6197 5.39821 11.2435 6.47905C11.8656 7.55407 11.8682 8.88956 11.256 9.96961C11.1088 10.229 11.1997 10.5591 11.4595 10.7065C11.719 10.8537 12.049 10.7629 12.1964 10.5031C12.9937 9.09567 12.9911 7.33761 12.1794 5.93666C11.363 4.52283 9.86603 3.65392 8.23415 3.64037C7.936 3.63792 7.6922 3.87799 7.68998 4.17628C7.6874 4.47469 7.92734 4.7181 8.22563 4.72058L8.22568 4.72059ZM8.31512 6.97118C8.72904 7.00912 9.09121 7.24171 9.29878 7.60142C9.52414 7.99148 9.52569 8.46904 9.30317 8.86115C9.15564 9.12071 9.24677 9.45088 9.50671 9.59802C9.76615 9.74554 10.0962 9.65442 10.2436 9.3946C10.652 8.6735 10.6491 7.77736 10.2346 7.05933C9.85275 6.39822 9.17242 5.96508 8.41235 5.89549C8.11536 5.86851 7.85259 6.0878 7.82572 6.38468C7.79901 6.6818 8.01789 6.94445 8.31512 6.97118Z" fill="white"/>
</svg>
