<svg width="19" height="18" viewBox="0 0 19 18" fill="none" xmlns="http://www.w3.org/2000/svg">
<g clip-path="url(#clip0_85_11)">
<path d="M2.14736 14.9277L2.02612 16.1796L3.27312 16.0155L5.76876 15.6873C6.83311 16.241 8.04268 16.5538 9.32277 16.5538C13.5807 16.5538 17.0325 13.102 17.0325 8.84402C17.0325 4.58604 13.5807 1.13428 9.32277 1.13428C5.0648 1.13428 1.61304 4.58604 1.61304 8.84402C1.61304 10.0664 1.89824 11.2247 2.40634 12.2537L2.14736 14.9277Z" stroke="#DD5900" stroke-width="2"/>
<path d="M13.1647 10.5136L11.5371 9.69979C11.4607 9.66166 11.3742 9.64853 11.29 9.66226C11.2057 9.67599 11.1279 9.71588 11.0675 9.77629L10.386 10.4578C9.40656 10.3004 7.86319 8.75741 7.70612 7.778L8.38768 7.09645C8.44809 7.0361 8.48798 6.95828 8.50171 6.87401C8.51543 6.78974 8.50231 6.70328 8.46418 6.62689L7.65038 4.99929C7.62374 4.94594 7.5857 4.8991 7.53895 4.86208C7.4922 4.82506 7.43788 4.79876 7.37985 4.78506C7.32181 4.77136 7.26147 4.77058 7.2031 4.78278C7.14473 4.79497 7.08976 4.81985 7.04207 4.85565L5.41447 6.07635C5.36393 6.11425 5.32292 6.1634 5.29467 6.2199C5.26642 6.2764 5.25171 6.3387 5.25171 6.40187C5.25171 10.2959 7.86807 12.9123 11.7621 12.9123C11.8253 12.9123 11.8876 12.8975 11.9441 12.8693C12.0006 12.841 12.0497 12.8 12.0876 12.7495L13.3083 11.1219C13.3441 11.0742 13.369 11.0192 13.3812 10.9609C13.3934 10.9025 13.3926 10.8422 13.3789 10.7841C13.3652 10.7261 13.3389 10.6718 13.3019 10.625C13.2649 10.5783 13.218 10.5402 13.1647 10.5136Z" fill="#DD5900"/>
</g>
<defs>
<clipPath id="clip0_85_11">
<rect width="19" height="18" fill="white"/>
</clipPath>
</defs>
</svg>
