<svg width="73" height="11" viewBox="0 0 73 11" fill="none" xmlns="http://www.w3.org/2000/svg">
<g clip-path="url(#clip0_87_4)">
<path d="M0.676025 10.1923L3.90003 0.832328H5.16753L8.39153 10.1923H7.39703L4.33553 1.36533H4.71253L1.67053 10.1923H0.676025ZM2.11253 7.92383V7.02683H6.94853V7.92383H2.11253ZM9.56528 10.1923V0.832328H13.1793C13.7036 0.832328 14.1608 0.940662 14.5508 1.15733C14.9408 1.374 15.2441 1.6665 15.4608 2.03483C15.6774 2.39883 15.7858 2.80183 15.7858 3.24383C15.7858 3.7465 15.6514 4.195 15.3828 4.58933C15.1141 4.97933 14.7544 5.25017 14.3038 5.40183L14.2908 5.08333C14.8974 5.25667 15.3741 5.56 15.7208 5.99333C16.0674 6.42667 16.2408 6.951 16.2408 7.56633C16.2408 8.108 16.1259 8.576 15.8963 8.97033C15.6666 9.36033 15.3438 9.6615 14.9278 9.87383C14.5118 10.0861 14.0286 10.1923 13.4783 10.1923H9.56528ZM10.5273 9.27583H13.2443C13.6256 9.27583 13.9679 9.20867 14.2713 9.07433C14.5746 8.93567 14.8129 8.74067 14.9863 8.48933C15.1639 8.238 15.2528 7.93467 15.2528 7.57933C15.2528 7.23267 15.1726 6.92067 15.0123 6.64333C14.8519 6.366 14.6331 6.145 14.3558 5.98033C14.0828 5.81133 13.7708 5.72683 13.4198 5.72683H10.5273V9.27583ZM10.5273 4.82333H13.1728C13.4718 4.82333 13.7448 4.75617 13.9918 4.62183C14.2388 4.48317 14.4338 4.29467 14.5768 4.05633C14.7241 3.818 14.7978 3.54283 14.7978 3.23083C14.7978 2.78883 14.6439 2.42917 14.3363 2.15183C14.0329 1.8745 13.6451 1.73583 13.1728 1.73583H10.5273V4.82333ZM21.3274 10.3873C20.3958 10.3873 19.6093 10.1814 18.9679 9.76983C18.3266 9.35383 17.8413 8.77967 17.5119 8.04733C17.1826 7.315 17.0179 6.47 17.0179 5.51233C17.0179 4.55467 17.1826 3.70967 17.5119 2.97733C17.8413 2.245 18.3266 1.673 18.9679 1.26133C19.6093 0.845329 20.3958 0.637329 21.3274 0.637329C22.4151 0.637329 23.3034 0.916829 23.9924 1.47583C24.6814 2.0305 25.1538 2.77583 25.4094 3.71183L24.4344 3.96533C24.2351 3.22433 23.8776 2.63717 23.3619 2.20383C22.8463 1.7705 22.1681 1.55383 21.3274 1.55383C20.5951 1.55383 19.9863 1.72067 19.5009 2.05433C19.0156 2.388 18.6494 2.85383 18.4024 3.45183C18.1598 4.0455 18.0341 4.73233 18.0254 5.51233C18.0211 6.29233 18.1403 6.97917 18.3829 7.57283C18.6299 8.1665 18.9983 8.63233 19.4879 8.97033C19.9819 9.304 20.5951 9.47083 21.3274 9.47083C22.1681 9.47083 22.8463 9.25417 23.3619 8.82083C23.8776 8.38317 24.2351 7.796 24.4344 7.05933L25.4094 7.31283C25.1538 8.24883 24.6814 8.99633 23.9924 9.55533C23.3034 10.1099 22.4151 10.3873 21.3274 10.3873ZM29.4461 10.1923V0.832328H32.2866C32.3863 0.832328 32.5553 0.834495 32.7936 0.838829C33.0363 0.843162 33.2681 0.860495 33.4891 0.890828C34.1998 0.990495 34.7935 1.25483 35.2701 1.68383C35.7468 2.11283 36.1043 2.65883 36.3426 3.32183C36.581 3.98483 36.7001 4.715 36.7001 5.51233C36.7001 6.30967 36.581 7.03983 36.3426 7.70283C36.1043 8.36583 35.7468 8.91183 35.2701 9.34083C34.7935 9.76983 34.1998 10.0341 33.4891 10.1338C33.2725 10.1598 33.0406 10.1771 32.7936 10.1858C32.5466 10.1901 32.3776 10.1923 32.2866 10.1923H29.4461ZM30.4341 9.27583H32.2866C32.4643 9.27583 32.655 9.2715 32.8586 9.26283C33.0666 9.24983 33.2443 9.22817 33.3916 9.19783C33.9376 9.1025 34.3775 8.8815 34.7111 8.53483C35.0491 8.18817 35.2961 7.75483 35.4521 7.23483C35.6081 6.7105 35.6861 6.13633 35.6861 5.51233C35.6861 4.884 35.6081 4.30767 35.4521 3.78333C35.2961 3.259 35.0491 2.82567 34.7111 2.48333C34.3731 2.141 33.9333 1.92217 33.3916 1.82683C33.2443 1.7965 33.0645 1.777 32.8521 1.76833C32.6441 1.75533 32.4556 1.74883 32.2866 1.74883H30.4341V9.27583ZM38.1805 10.1923V0.832328H44.0305V1.74883H39.136V4.98583H43.2505V5.90233H39.136V9.27583H44.0305V10.1923H38.1805ZM48.5018 10.3873C47.8475 10.3873 47.2581 10.2789 46.7338 10.0623C46.2138 9.84133 45.7826 9.52933 45.4403 9.12633C45.1023 8.72333 44.8813 8.2445 44.7773 7.68983L45.7523 7.52733C45.9083 8.134 46.2376 8.61067 46.7403 8.95733C47.243 9.29967 47.8431 9.47083 48.5408 9.47083C49.0001 9.47083 49.4118 9.39933 49.7758 9.25633C50.1398 9.109 50.4258 8.901 50.6338 8.63233C50.8418 8.36367 50.9458 8.04517 50.9458 7.67683C50.9458 7.43417 50.9025 7.22833 50.8158 7.05933C50.7291 6.886 50.6143 6.743 50.4713 6.63033C50.3283 6.51767 50.1723 6.4245 50.0033 6.35083C49.8343 6.27283 49.6696 6.21 49.5093 6.16233L47.1368 5.45383C46.8508 5.3715 46.5865 5.2675 46.3438 5.14183C46.1011 5.01183 45.8888 4.858 45.7068 4.68033C45.5291 4.49833 45.3905 4.286 45.2908 4.04333C45.1911 3.80067 45.1413 3.52333 45.1413 3.21133C45.1413 2.68267 45.28 2.2255 45.5573 1.83983C45.8346 1.45417 46.2138 1.15733 46.6948 0.949328C47.1758 0.741329 47.724 0.639495 48.3393 0.643828C48.9633 0.643828 49.5201 0.754328 50.0098 0.975328C50.5038 1.19633 50.9111 1.51267 51.2318 1.92433C51.5525 2.33167 51.7648 2.81483 51.8688 3.37383L50.8678 3.55583C50.8028 3.1485 50.6533 2.79533 50.4193 2.49633C50.1853 2.19733 49.8863 1.96767 49.5223 1.80733C49.1626 1.64267 48.7661 1.55817 48.3328 1.55383C47.9125 1.55383 47.5376 1.62533 47.2083 1.76833C46.8833 1.907 46.6255 2.09767 46.4348 2.34033C46.2441 2.583 46.1488 2.86033 46.1488 3.17233C46.1488 3.48867 46.2355 3.74217 46.4088 3.93283C46.5865 4.1235 46.8031 4.273 47.0588 4.38133C47.3188 4.48967 47.5701 4.5785 47.8128 4.64783L49.6458 5.18733C49.8365 5.23933 50.0596 5.31517 50.3153 5.41483C50.5753 5.51017 50.8266 5.64883 51.0693 5.83083C51.3163 6.0085 51.52 6.2425 51.6803 6.53283C51.8406 6.82317 51.9208 7.1915 51.9208 7.63783C51.9208 8.07117 51.8341 8.459 51.6608 8.80133C51.4918 9.14367 51.2513 9.43183 50.9393 9.66583C50.6316 9.89983 50.2698 10.0774 49.8538 10.1988C49.4421 10.3244 48.9915 10.3873 48.5018 10.3873ZM53.3925 10.1923V0.832328H54.348V10.1923H53.3925ZM60.0472 10.3873C59.3886 10.3873 58.7949 10.2724 58.2662 10.0428C57.7376 9.81317 57.2869 9.486 56.9142 9.06133C56.5459 8.63667 56.2642 8.12533 56.0692 7.52733C55.8742 6.925 55.7767 6.25333 55.7767 5.51233C55.7767 4.533 55.9457 3.67933 56.2837 2.95133C56.6261 2.219 57.1157 1.65133 57.7527 1.24833C58.3897 0.845328 59.1546 0.643828 60.0472 0.643828C61.0439 0.643828 61.8542 0.877828 62.4782 1.34583C63.1066 1.8095 63.5442 2.4335 63.7912 3.21783L62.8292 3.45183C62.6256 2.87983 62.2897 2.42267 61.8217 2.08033C61.3581 1.738 60.7796 1.56683 60.0862 1.56683C59.3539 1.5625 58.7451 1.72717 58.2597 2.06083C57.7744 2.39017 57.4082 2.85383 57.1612 3.45183C56.9186 4.0455 56.7951 4.73233 56.7907 5.51233C56.7864 6.29233 56.9056 6.97917 57.1482 7.57283C57.3952 8.16217 57.7636 8.62583 58.2532 8.96383C58.7429 9.2975 59.3539 9.4665 60.0862 9.47083C60.7579 9.47083 61.3126 9.34083 61.7502 9.08083C62.1879 8.82083 62.5194 8.44817 62.7447 7.96283C62.9744 7.4775 63.1044 6.90333 63.1347 6.24033H60.9767V5.42133H64.1357C64.1487 5.521 64.1552 5.62717 64.1552 5.73983C64.1596 5.84817 64.1617 5.92617 64.1617 5.97383C64.1617 6.81883 64.0101 7.575 63.7067 8.24233C63.4034 8.90533 62.9462 9.42967 62.3352 9.81533C61.7286 10.1966 60.9659 10.3873 60.0472 10.3873ZM65.4627 10.1923V0.832328H66.4247L71.5792 8.50233V0.832328H72.5412V10.1923H71.5792L66.4247 2.51583V10.1923H65.4627Z" fill="#151515"/>
</g>
<defs>
<clipPath id="clip0_87_4">
<rect width="73" height="11" fill="white"/>
</clipPath>
</defs>
</svg>
