<svg width="131" height="61" viewBox="0 0 131 61" fill="none" xmlns="http://www.w3.org/2000/svg">
<path fill-rule="evenodd" clip-rule="evenodd" d="M0.416016 60.0525L25.3673 6.42114L33.4692 23.0554L28.8083 33.6673L38.2974 33.8431L45.1756 48.4285L21.6386 48.3658L15.7602 60.1238L0.416016 60.0525Z" fill="#DD5900"/>
<path fill-rule="evenodd" clip-rule="evenodd" d="M27.1494 0.687866L54.3856 60.2678H70.0163L62.9893 44.8166C56.6042 42.9608 51.9359 37.0664 51.9359 30.0824C51.9359 27.7778 52.445 25.5937 53.3551 23.6322L42.9203 0.687866H27.1481H27.1494Z" fill="#DD5900"/>
<path fill-rule="evenodd" clip-rule="evenodd" d="M69.7703 0.380188C75.3954 0.711003 80.5974 2.61719 84.9423 5.66093L83.3669 7.64213C79.45 4.93904 74.7977 3.2247 69.7703 2.86314V0.380188ZM87.9147 8.04181C91.6115 11.4139 94.4474 15.7133 96.0572 20.5697L93.7255 21.2068C92.3481 17.264 90.0976 13.7321 87.2063 10.8408C86.9247 10.5592 86.6382 10.285 86.3442 10.0156L87.9135 8.04058L87.9147 8.04181ZM97.0176 24.2567C97.3669 26.0731 97.5501 27.9485 97.5501 29.8658C97.5501 33.2169 96.9918 36.4378 95.9625 39.4409L93.9604 38.6465C94.8028 36.0086 95.2578 33.1973 95.2578 30.279C95.2578 28.4318 95.0746 26.6265 94.7278 24.8814L97.0176 24.2554V24.2567ZM94.4966 42.9569C91.9054 48.1872 87.8114 52.5395 82.7778 55.4504L82.0252 53.7865C83.9129 52.6391 85.6519 51.2703 87.2063 49.7171C89.3855 47.5379 91.2007 44.9947 92.5522 42.1858L94.4966 42.9569ZM65.9616 2.84962C60.2258 3.22224 54.9709 5.35348 50.7281 8.70836L49.78 6.62263C54.2982 3.07344 59.8766 0.813076 65.9616 0.396175V2.84839V2.84962ZM81.7878 53.2589L81.1705 51.884C82.8319 50.851 84.3667 49.6323 85.7429 48.2549C87.7241 46.2737 89.3794 43.9666 90.6227 41.4209L92.0161 41.9731C90.694 44.7082 88.9231 47.1862 86.7993 49.3113C85.2952 50.8153 83.6129 52.1423 81.7878 53.2589ZM92.032 37.8828C92.7834 35.4822 93.188 32.9292 93.188 30.2814C93.188 28.6224 93.0294 27.0016 92.7256 25.4311L94.1707 25.0364C94.5052 26.7322 94.6823 28.4859 94.6823 30.2814C94.6823 33.1235 94.2408 35.8635 93.4242 38.435L92.032 37.8828ZM91.7234 21.7565C90.4456 18.1655 88.3832 14.9471 85.7429 12.3067C85.5166 12.0805 85.2866 11.8603 85.053 11.6427L85.9851 10.4694C86.2618 10.724 86.5336 10.9847 86.7993 11.2503C89.6204 14.0715 91.8181 17.5174 93.1684 21.3617L91.7221 21.7577L91.7234 21.7565ZM82.0756 9.26792C78.5178 6.8403 74.3119 5.29322 69.7703 4.94027V3.44115C74.6624 3.80025 79.1905 5.46785 83.0078 8.09469L82.0756 9.26792ZM65.9616 4.92551C60.5308 5.30675 55.5698 7.39494 51.6124 10.6551L50.9729 9.24947C55.137 5.92042 60.3095 3.80148 65.9604 3.42639V4.92428L65.9616 4.92551ZM80.9331 51.354L80.2813 49.8942C81.7067 48.9829 83.0262 47.9204 84.2167 46.7299C85.9913 44.9553 87.4806 42.8954 88.6095 40.624L90.0853 41.2094C88.8727 43.6813 87.2617 45.9232 85.3358 47.8491C84.0089 49.176 82.5319 50.3541 80.9331 51.3552V51.354ZM90.0189 37.0847C90.6756 34.9325 91.0298 32.6488 91.0298 30.2814C91.0298 28.8204 90.8945 27.3902 90.6362 26.003L92.1686 25.5836C92.46 27.1049 92.6113 28.6753 92.6113 30.2814C92.6113 32.8542 92.2202 35.3359 91.4946 37.67L90.0176 37.0847H90.0189ZM89.6352 22.3283C88.4619 19.1038 86.5963 16.2126 84.2179 13.8329C84.0507 13.6657 83.8797 13.4996 83.7076 13.3373L84.6951 12.0952C84.9128 12.2981 85.1267 12.5035 85.337 12.7138C87.9073 15.2841 89.9168 18.4164 91.1675 21.909L89.6364 22.3271L89.6352 22.3283ZM80.729 10.9626C77.5463 8.82396 73.8053 7.45028 69.7715 7.10594V5.51827C74.1766 5.86999 78.2596 7.37034 81.7165 9.72048L80.729 10.9626ZM65.9628 7.08995C60.8481 7.48349 56.1958 9.52986 52.5421 12.6966L51.8608 11.1987C55.7371 7.96311 60.6157 5.88721 65.9628 5.50229V7.08872V7.08995ZM80.0452 49.3617L79.359 47.8158C80.5384 47.0349 81.6341 46.1384 82.6303 45.1423C84.1896 43.5829 85.5055 41.7776 86.5152 39.7914L88.0721 40.41C86.9739 42.6077 85.5289 44.6024 83.8096 46.3216C82.6684 47.4629 81.4066 48.4824 80.044 49.3605L80.0452 49.3617ZM87.9258 36.2533C88.4865 34.3607 88.7866 32.3561 88.7866 30.2814C88.7866 29.0246 88.6759 27.7936 88.4644 26.597L90.0804 26.1555C90.3263 27.4935 90.4554 28.8721 90.4554 30.2814C90.4554 32.5738 90.116 34.7862 89.4827 36.8719L87.9258 36.2545V36.2533ZM87.4621 22.9223C86.3996 20.079 84.7381 17.526 82.6315 15.4194C82.5245 15.3124 82.415 15.2054 82.3056 15.1008L83.3472 13.7899C83.5034 13.9375 83.6584 14.0875 83.8109 14.24C86.1192 16.5483 87.9331 19.3535 89.0781 22.4808L87.4621 22.9223ZM79.3283 12.7249C76.5366 10.8839 73.2801 9.68974 69.7715 9.35892V7.68271C73.6712 8.02337 77.2868 9.35154 80.3699 11.4139L79.3283 12.7249ZM65.9628 9.34048C61.1765 9.74754 56.8476 11.7595 53.5161 14.8364L52.7917 13.2438C56.3643 10.1005 60.933 8.06395 65.9628 7.66672V9.34048ZM79.1229 47.2809L78.4465 45.7498C79.3824 45.1029 80.2568 44.3724 81.0598 43.5706C82.4077 42.2227 83.5501 40.672 84.4405 38.9675L85.979 39.5775C85.0001 41.491 83.7285 43.2287 82.2244 44.734C81.2787 45.6797 80.2395 46.5332 79.1229 47.2797V47.2809ZM85.8511 35.4294C86.316 33.7925 86.5656 32.0659 86.5656 30.2802C86.5656 29.2263 86.4795 28.192 86.3123 27.1848L87.9073 26.7482C88.1065 27.8956 88.2111 29.0762 88.2111 30.2802C88.2111 32.2798 87.9233 34.2119 87.3883 36.0393L85.8511 35.4294ZM85.3088 23.5102C84.3557 21.0432 82.8971 18.8271 81.0598 16.9898L80.9159 16.8471L81.9453 15.5522C82.0387 15.6419 82.1322 15.733 82.2244 15.8252C84.261 17.8617 85.8695 20.3262 86.905 23.0736L85.3088 23.5102ZM77.9398 14.4712C75.538 12.9229 72.7587 11.9071 69.7727 11.591V9.93693C73.1448 10.2653 76.2784 11.4127 78.9692 13.1774L77.9398 14.4712ZM65.9641 11.5713C61.4999 11.9968 57.492 13.9842 54.4913 16.9787L53.7682 15.3886C57.0149 12.335 61.2613 10.3292 65.9641 9.91848V11.5713ZM78.2116 45.2136L76.9498 42.3408C78.6728 41.1036 80.1289 39.5184 81.216 37.6885L83.9043 38.7547C83.0459 40.3867 81.9465 41.871 80.6552 43.1635C79.9038 43.9149 79.086 44.6012 78.2128 45.2136H78.2116ZM82.7373 34.1946C83.1394 32.8222 83.3571 31.3698 83.3571 29.867C83.3571 29.2435 83.3202 28.6274 83.2476 28.0235L85.7552 27.3373C85.9114 28.2953 85.9913 29.2779 85.9913 30.2802C85.9913 31.9908 85.7552 33.6461 85.3149 35.2154L82.7385 34.1934L82.7373 34.1946ZM82.3253 24.3268C81.5788 22.4009 80.4548 20.6632 79.0442 19.2047L80.5568 17.3009L80.654 17.3969C82.4212 19.1641 83.8269 21.2929 84.7504 23.6627L82.324 24.3268H82.3253ZM76.0779 16.8139C74.2062 15.6542 72.0663 14.8869 69.7727 14.6249V12.1702C72.6246 12.4826 75.2785 13.4517 77.5795 14.925L76.0779 16.8139ZM65.9641 14.6593C61.9439 15.1955 58.4168 17.2886 56.0077 20.3127L54.7471 17.5408L54.8885 17.3981C57.7859 14.5007 61.6549 12.5748 65.9653 12.1506V14.6593H65.9641ZM80.8741 56.4638C80.0686 56.8536 79.2434 57.209 78.3985 57.5263L77.6853 55.9276C78.524 55.6029 79.3418 55.2389 80.1375 54.838L80.8729 56.465L80.8741 56.4638ZM77.4516 55.4012L76.8416 54.0349C77.6791 53.7152 78.4957 53.3512 79.2889 52.9478L79.9026 54.3129C79.1069 54.715 78.2903 55.079 77.4516 55.4025V55.4012ZM76.6067 53.5073L75.9611 52.0586C76.801 51.7426 77.6176 51.3798 78.4071 50.9727L79.0528 52.4202C78.2608 52.8248 77.4442 53.1876 76.6067 53.5073ZM75.7262 51.5323L75.0449 50.0049C75.8885 49.6937 76.7063 49.3297 77.4946 48.9177L78.1735 50.4464C77.384 50.8547 76.5674 51.2175 75.7262 51.5323ZM74.81 49.4785L74.1373 47.9708C74.9859 47.6658 75.8061 47.3006 76.5932 46.8812L77.2597 48.3914C76.4714 48.8058 75.6536 49.1686 74.8088 49.4785H74.81ZM73.9024 47.4432L72.5964 44.5151C73.4658 44.2433 74.3033 43.8953 75.099 43.4808C75.5196 44.4388 75.9402 45.3956 76.3608 46.3524C75.5737 46.7742 74.7522 47.1395 73.9024 47.4432ZM76.3485 58.2113C75.4335 58.4806 74.5001 58.7069 73.5494 58.8877L72.83 57.3062C73.7856 57.1279 74.7239 56.9016 75.6413 56.6273L76.3472 58.2113H76.3485ZM72.5853 56.7651L71.9458 55.3594C72.9136 55.1995 73.8631 54.9843 74.7915 54.7187L75.4064 56.0961C74.4853 56.3678 73.5445 56.5917 72.5853 56.7651ZM71.6986 54.8158L71.0173 53.318C71.9999 53.1802 72.9628 52.9822 73.9024 52.7264L74.5542 54.1886C73.6232 54.4518 72.6701 54.6621 71.6986 54.8171V54.8158ZM70.7689 52.7707L70.0445 51.1769C71.0444 51.0699 72.0245 50.8916 72.9776 50.6493L73.6663 52.1939C72.7243 52.4473 71.7564 52.6403 70.7701 52.7707H70.7689ZM69.7924 50.6235L69.0693 49.0321C70.09 48.962 71.0874 48.812 72.0565 48.5857L72.7378 50.1143C71.781 50.3529 70.7972 50.5251 69.7924 50.6235ZM68.8135 48.4713L67.3242 45.1952C67.553 45.205 67.7829 45.2111 68.0141 45.2111C68.8479 45.2111 69.667 45.1435 70.4651 45.0156L71.8179 48.0495C70.8439 48.2709 69.8404 48.4135 68.8147 48.4713H68.8135Z" fill="#DD5900"/>
<path fill-rule="evenodd" clip-rule="evenodd" d="M104.79 60.6859C100.327 60.6859 95.9883 60.162 91.775 59.113L89.8122 54.8493C92.4502 52.5631 94.7216 49.8649 96.5282 46.8568C99.3469 47.5762 102.129 47.9366 104.871 47.9366C105.991 47.9366 107.011 47.8862 107.932 47.7865L113.426 59.8656C110.816 60.4128 107.937 60.6871 104.789 60.6871L104.79 60.6859ZM112.15 46.6514C113.592 45.8656 114.312 44.7207 114.312 43.2154C114.312 41.5601 113.416 40.3315 111.621 39.5309C109.827 38.7303 106.943 37.8892 102.969 37.0062C102.142 36.8278 101.342 36.6483 100.567 36.465C100.998 34.3326 101.226 32.1263 101.226 29.866C101.226 27.1051 100.885 24.4229 100.247 21.8588C102.014 22.6298 104.853 23.4292 108.765 24.2544C113.181 25.1927 116.837 26.1999 119.736 27.276C122.633 28.3521 125.145 30.064 127.271 32.4092C129.396 34.7556 130.458 37.9433 130.458 41.9721C130.458 45.4499 129.492 48.5957 127.561 51.4107C125.629 54.2257 122.731 56.475 118.867 58.1586C118.459 58.337 118.042 58.5054 117.615 58.6641L112.151 46.6502L112.15 46.6514ZM89.5417 4.65148C90.5686 4.00583 91.6901 3.41922 92.9089 2.8941C96.7446 1.23879 101.451 0.409912 107.026 0.409912C110.834 0.409912 114.588 0.837881 118.286 1.69382C121.984 2.54976 125.24 3.80538 128.055 5.46068L123.004 17.632C117.484 14.6509 112.131 13.1604 106.942 13.1604C103.686 13.1604 101.312 13.6437 99.8216 14.6091C99.1378 15.0531 98.6102 15.5573 98.24 16.123C96.2072 11.6834 93.22 7.7727 89.5405 4.65148H89.5417Z" fill="#DD5900"/>
<path fill-rule="evenodd" clip-rule="evenodd" d="M76.2834 33.7297L88.4965 60.2723L84.9792 60.2539C81.1681 52.0229 77.587 43.814 73.9837 35.5584L73.1843 33.7297H76.2834ZM82.5996 60.2416L79.6001 60.2256L67.783 33.7297H70.8341L72.0086 36.4192C75.4926 44.4031 78.9582 52.3439 82.5996 60.2416ZM77.2389 60.2133L73.9406 60.1961L62.1936 33.7309H65.4267L77.2377 60.2133H77.2389Z" fill="#4B4B4D"/>
<path fill-rule="evenodd" clip-rule="evenodd" d="M62.1198 33.7077H76.3374L88.5874 60.2393H73.9885L62.1198 33.7077Z" fill="#DD5900"/>
</svg>
