<svg width="87" height="40" viewBox="0 0 87 40" fill="none" xmlns="http://www.w3.org/2000/svg">
<path fill-rule="evenodd" clip-rule="evenodd" d="M0 39.5357L16.5131 4.04175L21.875 15.0505L18.7904 22.0736L25.0704 22.19L29.6225 31.8427L14.0454 31.8012L10.155 39.5829L0 39.5357Z" fill="#DD5900"/>
<path fill-rule="evenodd" clip-rule="evenodd" d="M17.6925 0.247314L35.7178 39.678H46.0624L41.4118 29.4523C37.186 28.2241 34.0965 24.3231 34.0965 19.701C34.0965 18.1758 34.4334 16.7303 35.0357 15.4321L28.1298 0.247314H17.6917H17.6925Z" fill="#DD5900"/>
<path fill-rule="evenodd" clip-rule="evenodd" d="M45.8995 0.0439453C49.6223 0.262883 53.0651 1.52442 55.9405 3.53881L54.8979 4.84999C52.3057 3.06105 49.2267 1.92648 45.8995 1.6872V0.0439453ZM57.9077 5.11451C60.3543 7.3462 62.2311 10.1916 63.2965 13.4056L61.7534 13.8272C60.8418 11.2179 59.3524 8.88039 57.4389 6.96693C57.2525 6.78055 57.0629 6.59905 56.8684 6.4208L57.9069 5.11369L57.9077 5.11451ZM63.9322 15.8457C64.1633 17.0478 64.2846 18.289 64.2846 19.5579C64.2846 21.7757 63.9151 23.9073 63.2338 25.8948L61.9088 25.3691C62.4663 23.6233 62.7675 21.7627 62.7675 19.8313C62.7675 18.6089 62.6462 17.4141 62.4167 16.2592L63.9322 15.8449V15.8457ZM62.2637 28.2218C60.5488 31.6833 57.8393 34.5636 54.5081 36.4901L54.01 35.3889C55.2593 34.6296 56.4102 33.7237 57.4389 32.6957C58.8811 31.2535 60.0824 29.5704 60.9769 27.7115L62.2637 28.2218ZM43.3789 1.67824C39.5829 1.92485 36.1051 3.33533 33.2972 5.55564L32.6697 4.17527C35.6599 1.82637 39.3517 0.330436 43.3789 0.0545259V1.67743V1.67824ZM53.8529 35.0398L53.4443 34.1298C54.5439 33.4462 55.5596 32.6396 56.4704 31.728C57.7816 30.4168 58.8771 28.89 59.6999 27.2052L60.6221 27.5707C59.7471 29.3808 58.5751 31.0208 57.1695 32.4272C56.1741 33.4226 55.0607 34.3007 53.8529 35.0398ZM60.6326 24.8636C61.1299 23.2749 61.3977 21.5853 61.3977 19.833C61.3977 18.735 61.2927 17.6623 61.0917 16.623L62.048 16.3617C62.2694 17.4841 62.3866 18.6447 62.3866 19.833C62.3866 21.7139 62.0944 23.5272 61.554 25.2291L60.6326 24.8636ZM60.4284 14.1911C59.5827 11.8145 58.2178 9.68452 56.4704 7.93709C56.3206 7.78733 56.1684 7.64165 56.0138 7.49759L56.6307 6.72113C56.8138 6.88961 56.9937 7.06215 57.1695 7.23795C59.0366 9.10503 60.491 11.3856 61.3847 13.9298L60.4275 14.1919L60.4284 14.1911ZM54.0434 5.92596C51.6888 4.31933 48.9052 3.29545 45.8995 3.06186V2.06973C49.1372 2.30738 52.134 3.41102 54.6603 5.1495L54.0434 5.92596ZM43.3789 3.0521C39.7847 3.3044 36.5015 4.6864 33.8824 6.84403L33.4592 5.91375C36.215 3.71054 39.6382 2.3082 43.3781 2.05996V3.05128L43.3789 3.0521ZM53.2872 33.779L52.8559 32.8129C53.7992 32.2099 54.6725 31.5066 55.4603 30.7188C56.6348 29.5443 57.6204 28.1811 58.3676 26.6778L59.3442 27.0652C58.5417 28.7012 57.4755 30.1849 56.201 31.4594C55.3228 32.3376 54.3453 33.1173 53.2872 33.7799V33.779ZM59.3003 24.3354C59.7349 22.9111 59.9693 21.3997 59.9693 19.833C59.9693 18.8661 59.8798 17.9195 59.7089 17.0014L60.723 16.7239C60.9159 17.7307 61.016 18.77 61.016 19.833C61.016 21.5356 60.7572 23.1781 60.277 24.7228L59.2995 24.3354H59.3003ZM59.0464 14.5695C58.2699 12.4355 57.0352 10.522 55.4612 8.94713C55.3505 8.83644 55.2373 8.72657 55.1234 8.61913L55.7769 7.7971C55.921 7.93139 56.0626 8.06731 56.2018 8.20649C57.9028 9.90753 59.2327 11.9805 60.0605 14.292L59.0472 14.5687L59.0464 14.5695ZM53.1521 7.0475C51.0458 5.63214 48.5699 4.72302 45.9003 4.49513V3.44439C48.8157 3.67717 51.5178 4.67012 53.8057 6.22547L53.1521 7.0475ZM43.3797 4.48455C39.9947 4.745 36.9158 6.09932 34.4977 8.19509L34.0468 7.20377C36.6122 5.06242 39.8409 3.68856 43.3797 3.43381V4.48374V4.48455ZM52.6996 32.4605L52.2455 31.4375C53.026 30.9206 53.7512 30.3273 54.4104 29.6681C55.4424 28.636 56.3133 27.4412 56.9815 26.1268L58.0119 26.5362C57.2851 27.9906 56.3288 29.3108 55.1909 30.4486C54.4356 31.2039 53.6006 31.8786 52.6988 32.4597L52.6996 32.4605ZM57.915 23.7852C58.2862 22.5327 58.4848 21.206 58.4848 19.833C58.4848 19.0012 58.4115 18.1865 58.2715 17.3945L59.341 17.1024C59.5038 17.9879 59.5892 18.9002 59.5892 19.833C59.5892 21.3501 59.3646 22.8143 58.9454 24.1946L57.915 23.786V23.7852ZM57.6082 14.9626C56.905 13.0809 55.8054 11.3913 54.4112 9.99706C54.3404 9.92625 54.268 9.85544 54.1955 9.78626L54.8849 8.91865C54.9883 9.01631 55.0908 9.11561 55.1918 9.21653C56.7194 10.7442 57.9199 12.6007 58.6777 14.6704L57.6082 14.9626ZM52.2251 8.21381C50.3776 6.99541 48.2224 6.20512 45.9003 5.98619V4.87685C48.4812 5.1023 50.874 5.9813 52.9145 7.3462L52.2251 8.21381ZM43.3797 5.97398C40.212 6.24338 37.3471 7.57491 35.1423 9.61127L34.6629 8.55728C37.0273 6.47696 40.0509 5.12916 43.3797 4.86627V5.97398ZM52.0892 31.0834L51.6415 30.0701C52.2609 29.642 52.8396 29.1586 53.3711 28.6279C54.2631 27.7359 55.0192 26.7096 55.6085 25.5815L56.6266 25.9852C55.9788 27.2516 55.1372 28.4016 54.1418 29.3978C53.5159 30.0237 52.8282 30.5886 52.0892 31.0826V31.0834ZM56.542 23.2399C56.8497 22.1566 57.0149 21.0139 57.0149 19.8322C57.0149 19.1346 56.9579 18.4502 56.8472 17.7836L57.9028 17.4946C58.0347 18.254 58.1039 19.0353 58.1039 19.8322C58.1039 21.1555 57.9134 22.4342 57.5594 23.6436L56.542 23.2399ZM56.1831 15.3517C55.5523 13.719 54.587 12.2524 53.3711 11.0364L53.2758 10.942L53.9571 10.085C54.0189 10.1444 54.0808 10.2046 54.1418 10.2656C55.4896 11.6134 56.5542 13.2445 57.2395 15.0627L56.1831 15.3517ZM51.3062 9.36954C49.7167 8.34485 47.8773 7.67257 45.9012 7.4634V6.36872C48.1328 6.58603 50.2067 7.34539 51.9875 8.51333L51.3062 9.36954ZM43.3805 7.45038C40.4261 7.73199 37.7736 9.04724 35.7877 11.0291L35.3091 9.97671C37.4578 7.95581 40.2682 6.62835 43.3805 6.35651V7.45038ZM51.4861 29.7153L50.651 27.814C51.7913 26.9952 52.755 25.9461 53.4744 24.735L55.2536 25.4407C54.6855 26.5207 53.9579 27.5031 53.1033 28.3585C52.606 28.8558 52.0648 29.3099 51.4869 29.7153H51.4861ZM54.4812 22.4228C54.7474 21.5145 54.8914 20.5533 54.8914 19.5587C54.8914 19.146 54.867 18.7383 54.819 18.3387L56.4785 17.8845C56.5819 18.5185 56.6348 19.1688 56.6348 19.8322C56.6348 20.9643 56.4785 22.0598 56.1871 23.0983L54.482 22.422L54.4812 22.4228ZM54.2086 15.8921C53.7145 14.6175 52.9706 13.4675 52.0371 12.5022L53.0382 11.2423L53.1025 11.3058C54.2721 12.4754 55.2023 13.8842 55.8136 15.4526L54.2078 15.8921H54.2086ZM50.074 10.92C48.8352 10.1525 47.4191 9.64464 45.9012 9.47128V7.84675C47.7886 8.05348 49.545 8.69483 51.0678 9.66987L50.074 10.92ZM43.3805 9.49407C40.7199 9.84893 38.3857 11.2342 36.7912 13.2355L35.957 11.401L36.0506 11.3066C37.9681 9.38908 40.5286 8.11452 43.3813 7.83372V9.49407H43.3805ZM53.2482 37.1608C52.7151 37.4188 52.169 37.654 51.6098 37.864L51.1377 36.8059C51.6928 36.591 52.2341 36.3501 52.7607 36.0848L53.2474 37.1616L53.2482 37.1608ZM50.9831 36.4576L50.5794 35.5533C51.1337 35.3417 51.6741 35.1008 52.1991 34.8338L52.6052 35.7373C52.0786 36.0034 51.5382 36.2443 50.9831 36.4584V36.4576ZM50.424 35.2042L49.9967 34.2454C50.5526 34.0362 51.093 33.7961 51.6155 33.5267L52.0428 34.4847C51.5187 34.7525 50.9782 34.9926 50.424 35.2042ZM49.8412 33.8971L49.3903 32.8862C49.9487 32.6803 50.4899 32.4394 51.0116 32.1667L51.4609 33.1784C50.9383 33.4486 50.3979 33.6887 49.8412 33.8971ZM49.2349 32.5378L48.7897 31.54C49.3513 31.3382 49.8941 31.0964 50.415 30.8189L50.8561 31.8184C50.3344 32.0927 49.7932 32.3327 49.234 32.5378H49.2349ZM48.6342 31.1909L47.7699 29.253C48.3453 29.0731 48.8995 28.8428 49.4261 28.5685C49.7045 29.2025 49.9828 29.8357 50.2612 30.4689C49.7403 30.7481 49.1966 30.9898 48.6342 31.1909ZM50.253 38.3173C49.6475 38.4956 49.0298 38.6453 48.4006 38.765L47.9245 37.7183C48.5569 37.6003 49.1779 37.4505 49.7851 37.269L50.2522 38.3173H50.253ZM47.7625 37.3602L47.3393 36.4299C47.9798 36.3241 48.6082 36.1817 49.2227 36.0059L49.6296 36.9174C49.02 37.0973 48.3974 37.2454 47.7625 37.3602ZM47.1757 36.0702L46.7248 35.0788C47.3751 34.9877 48.0124 34.8566 48.6342 34.6873L49.0656 35.6551C48.4495 35.8292 47.8187 35.9684 47.1757 36.071V36.0702ZM46.5604 34.7166L46.081 33.6618C46.7427 33.591 47.3914 33.473 48.0222 33.3127L48.4779 34.3349C47.8545 34.5026 47.214 34.6304 46.5612 34.7166H46.5604ZM45.9142 33.2956L45.4356 32.2424C46.1111 32.196 46.7712 32.0967 47.4126 31.947L47.8635 32.9586C47.2302 33.1165 46.5791 33.2305 45.9142 33.2956ZM45.2663 31.8713L44.2807 29.7031C44.4321 29.7096 44.5843 29.7136 44.7373 29.7136C45.2891 29.7136 45.8312 29.6689 46.3594 29.5842L47.2547 31.5921C46.6101 31.7386 45.9459 31.833 45.2671 31.8713H45.2663Z" fill="#DD5900"/>
<path fill-rule="evenodd" clip-rule="evenodd" d="M69.076 39.9549C66.1224 39.9549 63.2509 39.6081 60.4625 38.9139L59.1636 36.0921C60.9094 34.5791 62.4126 32.7934 63.6082 30.8026C65.4737 31.2788 67.3147 31.5172 69.1297 31.5172C69.8712 31.5172 70.5459 31.4839 71.1555 31.4179L74.7912 39.412C73.0641 39.7742 71.1587 39.9557 69.0752 39.9557L69.076 39.9549ZM73.9471 30.6667C74.901 30.1466 75.378 29.3889 75.378 28.3927C75.378 27.2972 74.7846 26.4841 73.5972 25.9543C72.4097 25.4244 70.5011 24.8677 67.8706 24.2833C67.3237 24.1653 66.7938 24.0465 66.2811 23.9252C66.5668 22.5139 66.7173 21.0538 66.7173 19.5579C66.7173 17.7307 66.4919 15.9556 66.0695 14.2586C67.239 14.7689 69.1175 15.2979 71.7065 15.8441C74.6292 16.4651 77.0489 17.1316 78.9672 17.8438C80.8848 18.556 82.5476 19.6889 83.954 21.241C85.3604 22.7939 86.0636 24.9035 86.0636 27.5698C86.0636 29.8715 85.4239 31.9535 84.146 33.8165C82.8674 35.6795 80.9499 37.1681 78.3926 38.2823C78.1224 38.4003 77.8465 38.5118 77.5641 38.6168L73.948 30.6659L73.9471 30.6667ZM58.9845 2.8706C59.6641 2.4433 60.4064 2.05508 61.213 1.70754C63.7515 0.612041 66.8663 0.0634766 70.5556 0.0634766C73.0763 0.0634766 75.5603 0.346712 78.0077 0.913182C80.455 1.47965 82.6102 2.31064 84.4732 3.40614L81.1306 11.4612C77.477 9.48837 73.9341 8.50193 70.5003 8.50193C68.3451 8.50193 66.7743 8.82179 65.7879 9.4607C65.3353 9.75451 64.9862 10.0882 64.7412 10.4626C63.3958 7.52444 61.4189 4.93626 58.9837 2.8706H58.9845Z" fill="#DD5900"/>
<path fill-rule="evenodd" clip-rule="evenodd" d="M50.21 22.115L58.2928 39.6813L55.965 39.6691C53.4428 34.2217 51.0727 28.7889 48.688 23.3253L48.159 22.115H50.21ZM54.3901 39.6609L52.405 39.6503L44.5843 22.115H46.6036L47.3809 23.895C49.6866 29.1788 51.9802 34.4341 54.3901 39.6609ZM50.8424 39.6422L48.6595 39.6308L40.8852 22.1158H43.0249L50.8416 39.6422H50.8424Z" fill="#4B4B4D"/>
<path fill-rule="evenodd" clip-rule="evenodd" d="M40.8363 22.1003H50.2457L58.3529 39.6593H48.6912L40.8363 22.1003Z" fill="#DD5900"/>
</svg>
